<svg height="512" viewBox="0 0 60 61" width="512" xmlns="http://www.w3.org/2000/svg"><g id="008---IT-Request" fill="none"><g id="Layer_4" transform="translate(1 1)"><path id="Shape" d="m58 6v34c0 3.3137085-2.6862915 6-6 6h-23c-2.07 9.66-10.33 11.7-15.25 12.04-.4380633.0259597-.8418679-.2367134-.9957004-.6476987s-.0217452-.8742437.3257004-1.1423013c4.64-3.8 3.92-10.25 3.92-10.25h-11c-3.3137085 0-6-2.6862915-6-6v-34c0-3.3137085 2.6862915-6 6-6h46c3.3137085 0 6 2.6862915 6 6z" fill="#cad9fc"/><path id="Shape" d="m55 6v34c0 3.3137085-2.6862915 6-6 6h-23c-1.78 8.29-8.12 10.97-12.99 11.77-.2096907-.2021853-.3221982-.4848525-.3087978-.7758328s.1514117-.5621104.3787978-.7441672c4.64-3.8 3.92-10.25 3.92-10.25h-11c-3.3137085 0-6-2.6862915-6-6v-34c0-3.3137085 2.6862915-6 6-6h43c3.3137085 0 6 2.6862915 6 6z" fill="#e8edfc"/><path id="Shape" d="m27.639 27.779 9.984 10.026c.7602974.7675026 1.7966744 1.1979755 2.877 1.195 1.6426886-.0149788 3.1166759-1.0122725 3.7415736-2.5315332.6248977-1.5192608.2791789-3.2650304-.8775736-4.4314668l-9.976-10.027z" fill="#a4c2f7"/><path id="Shape" d="m27.649 19.12h-.01l-5.82-5.86.717-.722-6.464-5.054-2.873 2.888 5.028 6.498.718-.722 5.83 5.862z" fill="#a4c2f7"/><path id="Shape" d="m18.2 37.264c-.5657102.5812793-1.3423813.9091797-2.1535.9091797s-1.5877898-.3279004-2.1535-.9091797c-1.1877837-1.1985735-1.1877837-3.1304265 0-4.329 2.217-2.228 15.364-15.443 15.5-15.581-1.300349-3.05409-.6192903-6.5916255 1.7220467-8.94460546 2.3413369-2.35297994 5.8754506-3.05157793 8.9359533-1.76639454l-5.322 5.357v4.329h4.306l5.322-5.35c1.2964408 3.0501827.6156538 6.5817445-1.7217309 8.9314266-2.3373847 2.349682-5.8653255 3.048991-8.9222691 1.7685734-8.52 8.569 3.727-3.753-15.513 15.585z" fill="#e8edfc"/></g><path id="Shape" d="m6 46h3c-3.3137085 0-6-2.6862915-6-6v-34c0-3.3137085 2.6862915-6 6-6h-3c-3.3137085 0-6 2.6862915-6 6v34c0 3.3137085 2.6862915 6 6 6z" fill="#fff" transform="translate(1 1)"/><path id="Rectangle-path" d="m0 7h2v8h-2z" fill="#fff"/><g fill="#428dff"><path id="Shape" d="m1.02 12c.55228475 0 1-.4477153 1-1s-.44771525-1-1-1h-.01c-.55228473.0027614-.99776139.4527153-.99499996 1.005.00276142.5522847.45271522.9977614 1.00499996.995z"/><path id="Shape" d="m53 0h-46c-3.86416566.00440864-6.99559136 3.13583434-7 7 0 .55228475.44771525 1 1 1s1-.44771525 1-1c.00330612-2.76005315 2.23994685-4.99669388 5-5h46c2.7600532.00330612 4.9966939 2.23994685 5 5v34c-.0033061 2.7600532-2.2399468 4.9966939-5 5h-23c-.0302866.0044654-.0603257.0104732-.09.018-.1281921.012789-.2529362.0490597-.368.107-.0598654.0315746-.1161852.0694564-.168.113-.0462721.0374415-.0891088.0789396-.128.124-.0411047.0494889-.0769634.1031093-.107.16-.0329603.0575698-.0594546.1186073-.079.182-.01.031-.031.055-.038.087-1.943 9.067-9.822 10.942-14.308 11.234 5-4.1 4.311-10.85 4.28-11.135-.0112201-.0484492-.0262673-.0959316-.045-.142-.013555-.0622397-.0326305-.1231473-.057-.182-.032596-.0608902-.0714744-.1182023-.116-.171-.0324483-.0461378-.0689245-.0893069-.109-.129-.0538852-.046316-.1129439-.0862477-.176-.119-.0473883-.0301378-.0972312-.05623-.149-.078-.0649391-.0210443-.1320187-.0347956-.2-.041-.0465049-.0131303-.0939917-.0224939-.142-.028h-11c-2.76005315-.0033061-4.99669388-2.2399468-5-5v-26c0-.5522847-.44771525-1-1-1s-1 .4477153-1 1v26c.00440864 3.8641657 3.13583434 6.9955914 7 7h10.038c0 1.781-.391 5.856-3.592 8.479-.6868353.557688-.9318524 1.4968527-.605 2.319.2904182.7553337 1.0187839 1.2514034 1.828 1.245.048 0 .1 0 .145-.005 4.949-.338 13.456-2.389 15.953-12.038h22.233c3.8641657-.0044086 6.9955914-3.1358343 7-7v-34c-.0044086-3.86416566-3.1358343-6.99559136-7-7z"/><path id="Shape" d="m24.534 13.476c-.0176403-.2854961-.1566942-.5497714-.382-.726l-6.464-5.05c-.3987355-.31204784-.967783-.27683132-1.325.082l-2.873 2.885c-.3541968.3561119-.3892874.9197023-.082 1.317l5.028 6.5c.1759151.2273124.4411362.3679379.728.386h.063c.2660316.0002096.5211817-.1055931.709-.294l.008-.009 4.415 4.438-10.172 10.225c-1.5739911 1.589625-1.5739911 4.150375 0 5.74.7535619.7696892 1.7853384 1.203478 2.8625 1.203478s2.1089381-.4337888 2.8625-1.203478l8.73-8.769 9.272 9.31c.9466163.9537013 2.2347632 1.4900848 3.5785 1.4900848s2.6318837-.5363835 3.5785-1.4900848c1.9687905-1.987665 1.9687905-5.190335 0-7.178l-8.012-8.055c2.6952441.2591347 5.3641092-.707723 7.268-2.633 2.6381665-2.637002 3.4105895-6.6118937 1.952-10.045-.1293785-.307415-.4035058-.5300912-.7309099-.5937253-.3274041-.063634-.6649824.0401516-.9000901.2767253l-5.029 5.055h-2.89v-2.922l5.032-5.068c.2340244-.23588617.3355959-.57260952.2710474-.8985592s-.2867852-.59854864-.5930474-.7274408c-3.3206308-1.40150388-7.1548384-.72065924-9.7899426 1.73841135-2.6351041 2.45907055-3.5789974 6.23713395-2.4100574 9.64658865l-.591.6-4.419-4.447.016-.016c.2017677-.2028669.3069732-.4824441.289-.768zm19.119 20.266c1.1674801 1.1993505 1.158676 3.1129774-.0197903 4.3015347-1.1784663 1.1885574-3.0919487 1.2136771-4.3012097.0564653l-9.278-9.318 3.61-3.626.723-.727zm-14.378-12.842c.013-.01.019-.027.031-.038s.018-.01.026-.018.02-.01.028-.019l1.747-1.766c.2849358-.2877086.3682428-.7188521.211-1.092-1.0397517-2.4198355-.6637467-5.2154788.978411-7.2746062 1.6421577-2.05912735 4.2840738-3.0477026 6.874589-2.5723938l-4.152 4.18c-.1859605.1874915-.2902107.4409275-.29.705v4.329c0 .5522847.4477153 1 1 1h4.306c.2661757-.0000552.5213461-.1062262.709-.295l4.142-4.163c.4310675 2.315753-.3087582 4.6950206-1.977 6.358-2.0368522 2.0675787-5.1330074 2.6749015-7.8 1.53-.3761502-.1598575-.8117223-.0747229-1.1.215l-1.757 1.767-4.291 4.31c-.007.007-.017.008-.023.015s-.009.017-.016.024l-9.423 9.465c-.8057835.7977753-2.1057246.7912834-2.9035-.0145-.7977753-.8057835-.7912834-2.1057247.0145-2.9035l10.847-10.9c.008-.008.019-.01.027-.018s.012-.021.02-.03zm-2.046-.778-1.46 1.467-5.115-5.142v-.006c-.0913602-.0907041-.1997792-.1624169-.319-.211-.031-.013-.064-.013-.1-.023-.0853972-.028616-.1741297-.0460936-.264-.052-.0470515.0024865-.0938498.0085035-.14.018-.0749813.0058734-.1490915.0199577-.221.042-.0950579.0498899-.190058.0998899-.285.15l-3.8-4.908 1.628-1.636 4.882 3.816c-.0316146.0485871-.0590465.099771-.082.153-.0255143.0412627-.0485549.0840047-.069.128-.0258531.0790813-.0419719.1610187-.048.244 0 .04-.015.078-.015.117.0045197.0964131.022701.1916967.054.283.009.026.009.054.019.081.0498678.1224013.1232522.2338368.216.328h.006z"/><path id="Shape" d="m7 6c.55228475 0 1-.44771525 1-1s-.44771525-1-1-1h-1c-.55228475 0-1 .44771525-1 1s.44771525 1 1 1z"/><path id="Shape" d="m16 4h-5c-.5522847 0-1 .44771525-1 1s.4477153 1 1 1h5c.5522847 0 1-.44771525 1-1s-.4477153-1-1-1z"/><path id="Shape" d="m44 42c-.5522847 0-1 .4477153-1 1s.4477153 1 1 1h1c.5522847 0 1-.4477153 1-1s-.4477153-1-1-1z"/><path id="Shape" d="m54 44c.5522847 0 1-.4477153 1-1s-.4477153-1-1-1h-5c-.5522847 0-1 .4477153-1 1s.4477153 1 1 1z"/></g></g></svg>